# xmcd
#
# Track frame offsets:
#	150
#	21229
#	39016
#	54577
#	70959
#	87701
#	108107
#	121407
#	136888
#	154034
#	171352
#
# Disc length: 2510 seconds
#
# Revision: 1
# Processed by: cddbd v1.5.2PL0 Copyright (c) Steve Scherf et al.
# Submitted via: audiograbber 1.82.01
#
DISCID=8e09cc0b
DTITLE=VON - Mange Veigje
DYEAR=2011
DGENRE=Country
TTITLE0=Deinn Lange Reisa
TTITLE1=Gild Kar
TTITLE2=Motbør
TTITLE3=Blant Høge Fjell
TTITLE4=Åt De
TTITLE5=Frå Son Te Far
TTITLE6=Flukt
TTITLE7=Heimplassen
TTITLE8=Solreinning
TTITLE9=Født Te  Få Te Illt
TTITLE10=Berre i Verd'n
EXTD=
EXTT0=
EXTT1=
EXTT2=
EXTT3=
EXTT4=
EXTT5=
EXTT6=
EXTT7=
EXTT8=
EXTT9=
EXTT10=
PLAYORDER=
